<?xml version="1.0" encoding="UTF-8" standalone="no"?>
<svg
   width="58.010998"
   height="58.011814"
   viewBox="0 0 58.010998 58.011814"
   fill="none"
   version="1.1"
   id="svg1"
   sodipodi:docname="Vector.svg"
   inkscape:export-filename="../../workspace/CourseProject/workspace/CourseProject/workspace/CourseProject/workspace/CourseProject/workspace/CourseProject/Layout/media/Vector.svg"
   inkscape:export-xdpi="96"
   inkscape:export-ydpi="96"
   xmlns:inkscape="http://www.inkscape.org/namespaces/inkscape"
   xmlns:sodipodi="http://sodipodi.sourceforge.net/DTD/sodipodi-0.dtd"
   xmlns="http://www.w3.org/2000/svg"
   xmlns:svg="http://www.w3.org/2000/svg">
  <defs
     id="defs1" />
  <sodipodi:namedview
     id="namedview1"
     pagecolor="#ffffff"
     bordercolor="#000000"
     borderopacity="0.25"
     inkscape:showpageshadow="2"
     inkscape:pageopacity="0.0"
     inkscape:pagecheckerboard="0"
     inkscape:deskcolor="#d1d1d1"
     inkscape:export-bgcolor="#ffffffff">
    <inkscape:page
       x="0"
       y="0"
       width="58.010998"
       height="58.011814"
       id="page2"
       margin="0"
       bleed="0" />
  </sodipodi:namedview>
  <path
     d="m 17.455499,44.005908 v -3.3333 h 23.1 v 3.3333 z m 0,-5.8333 -2.10375,-13.375 c -0.055,0 -0.11687,0.0069 -0.18562,0.0208 -0.06875,0.0139 -0.13063,0.0208 -0.18563,0.0208 -0.6875,0 -1.27187,-0.243 -1.753125,-0.7291 -0.48125,-0.48614 -0.721875,-1.07642 -0.721875,-1.77087 0,-0.69444 0.240625,-1.28472 0.721875,-1.77083 0.481255,-0.48611 1.065625,-0.72917 1.753125,-0.72917 0.6875,0 1.27188,0.24306 1.75313,0.72917 0.48125,0.48611 0.72187,1.07639 0.72187,1.77083 0,0.19445 -0.02062,0.375 -0.06187,0.54167 -0.04125,0.16667 -0.08938,0.31944 -0.14438,0.45833 l 5.15625,2.33337 5.1563,-7.12503 c -0.3025,-0.22223 -0.55,-0.51389 -0.7425,-0.875 -0.1925,-0.36111 -0.2888,-0.75 -0.2888,-1.16667 0,-0.69444 0.2406,-1.28472 0.7219,-1.770833 0.4812,-0.486111 1.0656,-0.729167 1.7531,-0.729167 0.6875,0 1.2719,0.243056 1.7531,0.729167 0.4813,0.486113 0.7219,1.076393 0.7219,1.770833 0,0.41667 -0.0962,0.80556 -0.2887,1.16667 -0.1925,0.36111 -0.44,0.65277 -0.7425,0.875 l 5.1562,7.12503 5.1563,-2.33337 c -0.055,-0.13889 -0.1032,-0.29166 -0.1444,-0.45833 -0.0413,-0.16667 -0.0619,-0.34722 -0.0619,-0.54167 0,-0.69444 0.2406,-1.28472 0.7219,-1.77083 0.4812,-0.48611 1.0656,-0.72917 1.7531,-0.72917 0.6875,0 1.2719,0.24306 1.7531,0.72917 0.4813,0.48611 0.7219,1.07639 0.7219,1.77083 0,0.69445 -0.2406,1.28473 -0.7219,1.77087 -0.4812,0.4861 -1.0656,0.7291 -1.7531,0.7291 -0.055,0 -0.1169,-0.0069 -0.1856,-0.0208 -0.0688,-0.0139 -0.1306,-0.0208 -0.1856,-0.0208 l -2.1038,13.375 z m 2.805,-3.3334 h 17.49 l 1.0725,-6.9583 -4.3312,1.9167 -5.4863,-7.62503 -5.4862,7.62503 -4.3313,-1.9167 z"
     fill="#d9d9d9"
     id="path1"
     style="fill:#808080" />
  <ellipse
     style="fill:none;stroke:#808080;stroke-width:6.391;stroke-dasharray:none"
     id="path2"
     cx="29.005499"
     cy="29.005907"
     rx="25.809999"
     ry="25.810408" />
  <path
     style="fill:#ffffff;stroke:#808080;stroke-width:1.02495;stroke-dasharray:none"
     d="M 26.301687,51.391179 C 19.738275,50.568883 13.861605,46.884763 10.158213,41.270736 8.4905309,38.742674 7.3439672,35.843134 6.7897698,32.752299 6.4311541,30.75225 6.440096,27.266917 6.8092001,25.178833 8.4166695,16.085106 15.255094,8.9943836 24.389985,6.9494188 c 2.178335,-0.4876484 6.63428,-0.5311697 8.841233,-0.086352 9.418674,1.8983585 16.530661,9.3083672 18.035306,18.7910562 0.307548,1.938247 0.214678,6.133844 -0.174072,7.864196 -0.650805,2.896771 -1.876631,5.758818 -3.53781,8.26005 -1.129613,1.700852 -4.163008,4.69082 -5.990377,5.904616 -2.598454,1.725975 -5.216029,2.815308 -8.200625,3.41278 -1.799103,0.360156 -5.357182,0.508995 -7.061953,0.295414 z M 40.574808,42.33893 V 40.654995 H 28.947639 17.320471 v 1.683935 1.683934 h 11.627168 11.627169 z m 1.10107,-10.767805 1.039288,-6.598064 0.639964,-0.08584 c 1.21432,-0.162874 2.191294,-1.26604 2.191294,-2.474334 0,-1.542111 -1.020684,-2.60661 -2.49932,-2.60661 -1.50549,0 -2.486749,1.034627 -2.529192,2.666749 l -0.02329,0.895642 -2.405621,1.091948 c -1.323091,0.600571 -2.452641,1.043942 -2.510111,0.985269 -0.05747,-0.05867 -1.191434,-1.609795 -2.519919,-3.446936 l -2.415428,-3.340257 0.387932,-0.588924 c 0.59043,-0.896343 0.673432,-1.781753 0.249181,-2.658136 -1.083776,-2.238781 -4.443334,-1.766822 -4.770197,0.67013 -0.110194,0.821547 -6e-4,1.268954 0.486745,1.987097 l 0.383126,0.564567 -2.022901,2.798343 c -1.112597,1.539089 -2.240854,3.093664 -2.507238,3.454611 l -0.484335,0.656268 -2.482598,-1.111233 -2.482597,-1.111235 0.04655,-0.914984 c 0.08017,-1.575814 -0.884478,-2.59772 -2.452172,-2.59772 -1.525043,0 -2.484968,0.991087 -2.484153,2.564796 7.07e-4,1.363044 0.640712,2.132168 2.077871,2.497078 l 0.726216,0.184393 1.033132,6.598854 1.033132,6.598852 11.627678,-0.04113 11.627678,-0.04113 z"
     id="path6" />
  <path
     id="path8"
     style="fill:#ffffff;stroke:#ffffff;stroke-width:1.02495;stroke-dasharray:none"
     d="m 28.947266,7.2246094 c -2.97802,0.00497 -3.331359,0.037413 -4.949219,0.453125 -2.076676,0.5336061 -4.254362,1.3990757 -5.818359,2.3125 -5.625426,3.2854246 -9.5236208,8.7494336 -10.7402349,15.0546876 -0.3739845,1.93822 -0.3660785,6.21201 0.013672,7.992187 0.9728811,4.560629 2.9586749,8.243196 6.1933589,11.478516 3.112315,3.112928 7.510007,5.429687 11.533204,6.078125 0.661545,0.106626 1.31105,0.219522 1.443359,0.251953 0.549938,0.134801 5.153766,-0.09329 6.427734,-0.318359 1.557258,-0.27512 4.219214,-1.159845 5.669922,-1.884766 2.648653,-1.323537 6.020629,-4.172132 7.916016,-6.6875 1.562595,-2.073721 2.83086,-4.770039 3.666015,-7.794922 0.543243,-1.967596 0.70538,-6.459481 0.314454,-8.697265 C 49.836263,20.99263 47.370383,16.29042 44.240234,13.298828 41.26241,10.452818 37.336134,8.3829133 33.117188,7.4355469 32.479647,7.2923868 31.072395,7.2210594 28.947266,7.2246094 Z m -0.08008,6.1914066 c 0.16315,-0.0075 0.329688,-0.0023 0.496093,0.01367 2.107751,0.202527 3.351287,2.549128 2.396485,4.521484 l -0.353516,0.728516 2.203125,3.035156 c 2.134153,2.943492 2.214201,3.033516 2.619141,2.880859 0.229754,-0.08662 1.156433,-0.487834 2.060546,-0.890625 1.576716,-0.702441 1.643674,-0.752237 1.644532,-1.232422 0.0022,-1.251951 0.660374,-2.417571 1.662109,-2.941406 0.667895,-0.349254 2.26652,-0.345954 2.939453,0.0059 1.404525,0.734296 2.003063,2.793632 1.244141,4.279297 -0.337748,0.661172 -1.111736,1.292121 -1.855469,1.511719 l -0.701172,0.207031 -1.035156,6.597656 -1.037109,6.597657 h -5.78125 c -3.179442,1.2e-4 -8.648105,0.0491 -12.154297,0.107422 -4.472473,0.0744 -6.375,0.05353 -6.375,-0.06641 0,-0.23303 -1.899308,-12.377125 -2.007813,-12.83789 -0.04763,-0.202241 -0.211549,-0.409978 -0.363281,-0.460938 -1.963829,-0.659493 -2.732489,-1.776979 -2.496094,-3.630859 0.173794,-1.362954 1.167318,-2.388051 2.496094,-2.576172 1.951326,-0.276258 3.490494,0.942677 3.496094,2.769531 l 0.002,0.898438 2.101562,0.929687 c 1.155342,0.511698 2.118555,0.909373 2.140625,0.882813 0.02207,-0.02657 1.021683,-1.407732 2.222657,-3.06836 l 2.183593,-3.019531 -0.347656,-0.667969 c -0.416995,-0.800513 -0.449942,-2.215225 -0.06836,-2.953125 0.494055,-0.955398 1.525914,-1.568557 2.667969,-1.621093 z m 0.18164,9.050781 c -0.05585,-0.03406 -1.312981,1.622101 -2.792969,3.681641 l -2.689453,3.746093 -1.238281,-0.535156 c -0.681062,-0.293568 -1.654404,-0.718698 -2.162109,-0.945313 l -0.923828,-0.412109 0.08203,0.353516 c 0.04425,0.19384 0.264406,1.578621 0.490234,3.078125 0.225827,1.499504 0.447078,2.853451 0.492188,3.007812 0.07681,0.262806 0.631499,0.279297 8.71875,0.279297 h 8.636718 L 37.75,34.279297 c 0.267479,-1.349979 0.918929,-6.008805 0.849609,-6.078125 -0.04494,-0.04494 -1.000075,0.324217 -2.121093,0.820312 -1.121017,0.496095 -2.052573,0.881209 -2.070313,0.855469 -0.794947,-1.153894 -5.288555,-7.366956 -5.359375,-7.410156 z m -12.36914,17.546875 h 12.267578 12.269531 v 2.326172 2.324218 H 28.947266 16.679688 v -2.324218 z" />
</svg>
