<svg width="90" height="100" viewBox="0 0 90 100" fill="none" xmlns="http://www.w3.org/2000/svg">
<path d="M40 100C28.4167 97.0833 18.8542 90.4375 11.3125 80.0625C3.77083 69.6875 0 58.1667 0 45.5V15L40 0L80 15V47.75C80 48.5 79.9583 49.2917 79.875 50.125H69.75C69.8333 49.2917 69.8958 48.5 69.9375 47.75C69.9792 47 70 46.25 70 45.5V21.875L40 10.625L10 21.875V45.5C10 55.5833 12.8333 64.75 18.5 73C24.1667 81.25 31.3333 86.75 40 89.5V100ZM65 100V85H50V75H65V60H75V75H90V85H75V100H65ZM32.5 65H47.5L44.625 48.875C46.2917 48.0417 47.6042 46.8333 48.5625 45.25C49.5208 43.6667 50 41.9167 50 40C50 37.25 49.0208 34.8958 47.0625 32.9375C45.1042 30.9792 42.75 30 40 30C37.25 30 34.8958 30.9792 32.9375 32.9375C30.9792 34.8958 30 37.25 30 40C30 41.9167 30.4792 43.6667 31.4375 45.25C32.3958 46.8333 33.7083 48.0417 35.375 48.875L32.5 65Z" fill="#2978A0"/>
</svg>
