<svg width="37" height="43" viewBox="0 0 37 43" fill="none" xmlns="http://www.w3.org/2000/svg">
<path d="M12.9 34.4C11.7175 34.4 10.7052 33.979 9.86312 33.1369C9.02104 32.2948 8.6 31.2825 8.6 30.1V4.3C8.6 3.1175 9.02104 2.10521 9.86312 1.26313C10.7052 0.421042 11.7175 0 12.9 0H32.25C33.4325 0 34.4448 0.421042 35.2869 1.26313C36.129 2.10521 36.55 3.1175 36.55 4.3V30.1C36.55 31.2825 36.129 32.2948 35.2869 33.1369C34.4448 33.979 33.4325 34.4 32.25 34.4H12.9ZM12.9 30.1H32.25V4.3H12.9V30.1ZM4.3 43C3.1175 43 2.10521 42.579 1.26312 41.7369C0.421042 40.8948 0 39.8825 0 38.7V8.6H4.3V38.7H27.95V43H4.3Z" fill="#93672D"/>
</svg>
