<svg width="41" height="41" viewBox="0 0 41 41" fill="none" xmlns="http://www.w3.org/2000/svg">
<path d="M4.48148 35.8519H7.67454L29.5778 13.9486L26.3847 10.7556L4.48148 32.6588V35.8519ZM0 40.3333V30.8102L29.5778 1.28843C30.0259 0.877624 30.5208 0.560185 31.0623 0.336111C31.6038 0.112037 32.1733 0 32.7708 0C33.3684 0 33.9472 0.112037 34.5074 0.336111C35.0676 0.560185 35.5531 0.896296 35.9639 1.34444L39.0449 4.48148C39.4931 4.89228 39.8198 5.37778 40.0252 5.93796C40.2306 6.49815 40.3333 7.05833 40.3333 7.61852C40.3333 8.21605 40.2306 8.78557 40.0252 9.32708C39.8198 9.8686 39.4931 10.3634 39.0449 10.8116L9.52315 40.3333H0ZM27.9532 12.3801L26.3847 10.7556L29.5778 13.9486L27.9532 12.3801Z" fill="#93672D"/>
</svg>
