<svg width="115" height="91" viewBox="0 0 115 91" fill="none" xmlns="http://www.w3.org/2000/svg">
<path d="M93.7946 40.0414H64.8997C53.8038 40.0414 44.8088 48.6241 44.8088 59.2115C44.8088 69.7988 53.8038 78.3816 64.8997 78.3816H93.7946C104.891 78.3816 113.886 69.7988 113.886 59.2115C113.886 48.6241 104.891 40.0414 93.7946 40.0414Z" fill="#2978A0" stroke="#2978A0"/>
<path d="M79.3472 49.4696C91.4195 49.4696 101.206 42.4437 101.206 33.7768C101.206 25.1099 91.4195 18.0839 79.3472 18.0839C67.2748 18.0839 57.4883 25.1099 57.4883 33.7768C57.4883 42.4437 67.2748 49.4696 79.3472 49.4696Z" fill="#2978A0" stroke="#2978A0"/>
<path d="M66.2394 33.8924V45.7282C38.5415 45.7282 27.6301 45.7282 15.9265 45.7282V33.8924C15.9265 -3.96412 66.2394 -3.96415 66.2394 33.8924Z" stroke="#7AAAC4" stroke-width="11"/>
<path d="M69.4202 41.9809H12.7459C5.98268 41.9809 0.5 47.2123 0.5 53.6656V78.4235C0.5 84.8767 5.98268 90.1081 12.7459 90.1081H69.4202C76.1834 90.1081 81.6661 84.8767 81.6661 78.4235V53.6656C81.6661 47.2123 76.1834 41.9809 69.4202 41.9809Z" fill="#7AAAC4" stroke="#7AAAC4"/>
<path d="M17.2225 68.1689L16.7675 67.0934L15.7371 66.4781L16.4857 65.5643L16.5289 64.4052L17.7326 64.567L18.8063 64.0231L19.2613 65.0987L20.2917 65.7139L19.5431 66.6277L19.4999 67.7868L18.2962 67.625L17.2225 68.1689Z" fill="#2978A0" stroke="#2978A0"/>
<path d="M40.3348 68.1689L39.8798 67.0934L38.8494 66.4781L39.598 65.5643L39.6412 64.4052L40.8449 64.567L41.9186 64.0231L42.3736 65.0987L43.404 65.7139L42.6554 66.6277L42.6122 67.7868L41.4085 67.625L40.3348 68.1689Z" fill="#2978A0" stroke="#2978A0"/>
<path d="M63.4474 68.1689L62.9924 67.0934L61.9619 66.4781L62.7106 65.5643L62.7538 64.4052L63.9575 64.567L65.0311 64.0231L65.4861 65.0987L66.5166 65.7139L65.7679 66.6277L65.7247 67.7868L64.521 67.625L63.4474 68.1689Z" fill="#2978A0" stroke="#2978A0"/>
</svg>
