<svg width="50" height="50" viewBox="0 0 50 50" fill="none" xmlns="http://www.w3.org/2000/svg">
<path d="M46.1111 50L28.6111 32.5C27.2222 33.6111 25.625 34.4907 23.8194 35.1389C22.0139 35.787 20.0926 36.1111 18.0556 36.1111C13.0093 36.1111 8.73843 34.3634 5.24306 30.8681C1.74769 27.3727 0 23.1019 0 18.0556C0 13.0093 1.74769 8.73843 5.24306 5.24306C8.73843 1.74769 13.0093 0 18.0556 0C23.1019 0 27.3727 1.74769 30.8681 5.24306C34.3634 8.73843 36.1111 13.0093 36.1111 18.0556C36.1111 20.0926 35.787 22.0139 35.1389 23.8194C34.4907 25.625 33.6111 27.2222 32.5 28.6111L50 46.1111L46.1111 50ZM18.0556 30.5556C21.5278 30.5556 24.4792 29.3403 26.9097 26.9097C29.3403 24.4792 30.5556 21.5278 30.5556 18.0556C30.5556 14.5833 29.3403 11.6319 26.9097 9.20139C24.4792 6.77083 21.5278 5.55556 18.0556 5.55556C14.5833 5.55556 11.6319 6.77083 9.20139 9.20139C6.77083 11.6319 5.55556 14.5833 5.55556 18.0556C5.55556 21.5278 6.77083 24.4792 9.20139 26.9097C11.6319 29.3403 14.5833 30.5556 18.0556 30.5556Z" fill="#2978A0"/>
</svg>
