<svg width="48" height="94" viewBox="0 0 48 94" fill="none" xmlns="http://www.w3.org/2000/svg">
<path d="M25.3081 40.2523C26.3793 39.7953 27.2052 38.8667 27.5259 37.7306L28.2993 37.1017L29.035 37.7306C28.6515 39.6633 27.224 41.2207 25.3647 41.7929L25.3081 40.2523Z" fill="#F8BA06"/>
<path d="M22.2209 41.7931C20.3616 41.2209 18.9341 39.6635 18.5505 37.7309L19.2862 37.102L20.0597 37.7309C20.3804 38.867 21.2062 39.7956 22.2775 40.2525L22.2209 41.7931Z" fill="#F8BA06"/>
<path d="M22.2185 43.1807V40.6654C22.2185 39.7955 22.9228 39.0934 23.7927 39.0934C24.2267 39.0934 24.6207 39.2715 24.9037 39.5545C25.1866 39.8374 25.3647 40.2294 25.3647 40.6654V43.1807H22.2185Z" fill="#E8A615"/>
<path d="M16.3578 0.000197606L16.9804 0.629127V36.4732L16.3578 37.5086C16.0308 37.3829 15.7247 37.2004 15.4523 36.9698L4.11434 27.3757C3.3911 26.7636 2.97412 25.8644 2.97412 24.9191V1.48622C2.97412 0.666694 3.64062 0 4.46232 0L16.3578 0.000197606Z" fill="#F41943"/>
<path d="M44.6096 1.48624V24.919C44.6096 25.8642 44.1925 26.7636 43.4694 27.3756L32.1356 36.9697C31.8632 37.2002 31.5571 37.3827 31.2279 37.5084L30.3958 36.6826V1.25787L31.2279 0.000213623H43.1236C43.9451 0.000213623 44.6096 0.66671 44.6096 1.48624Z" fill="#F41943"/>
<path d="M31.228 0.000213623V37.5086C30.8571 37.6553 30.4587 37.7309 30.0542 37.7309H17.5317C17.1272 37.7309 16.7288 37.6553 16.3579 37.5086V0.000213623H31.228Z" fill="#EBF2F2"/>
<path d="M16.3575 32.8341V37.5084C16.0305 37.3827 15.7245 37.2002 15.452 36.9697L7.41333 30.1677C9.55972 30.9686 12.8214 32.0648 16.3575 32.8341Z" fill="#C6123D"/>
<path d="M31.228 31.5471V37.5086C30.8571 37.6553 30.4587 37.7308 30.0542 37.7308H17.5317C17.1272 37.7308 16.7288 37.6553 16.3579 37.5086V32.8342C16.5655 32.8783 16.7729 32.9222 16.9805 32.9641C19.2675 33.4315 21.6466 33.7481 23.8977 33.7481C26.2517 33.7481 28.4485 33.0416 30.3958 32.0125C30.6788 31.8656 30.9554 31.7085 31.228 31.5471Z" fill="#C3DBDA"/>
<path d="M44.6095 1.48624V24.919C44.6095 25.8642 44.1923 26.7636 43.4693 27.3756L32.1355 36.9697C31.863 37.2002 31.557 37.3827 31.2278 37.5084V31.5469C33.7536 30.0483 35.8057 28.0715 37.1661 26.5643C38.3441 25.2563 38.9899 23.5543 38.9899 21.7915V7.15432C38.9899 3.28485 35.9148 0.0881966 32.0453 0.00436561C31.9174 0.00219075 31.7875 0.000213623 31.6533 0.000213623H43.1233C43.945 0.000213623 44.6095 0.66671 44.6095 1.48624Z" fill="#C6123D"/>
<path d="M11.0048 2.09637H5.46606C5.22662 2.09637 5.03247 2.29053 5.03247 2.52996V9.20718C5.03247 9.67477 5.67287 9.81317 5.86228 9.38571C6.75219 7.37792 8.4292 4.5251 11.2288 2.90226C11.6094 2.68161 11.4447 2.09637 11.0048 2.09637Z" fill="#FF85A2"/>
<path d="M23.7918 90.345C36.9316 90.345 47.5836 79.6931 47.5836 66.5532C47.5836 53.4134 36.9316 42.7615 23.7918 42.7615C10.6519 42.7615 0 53.4134 0 66.5532C0 79.6931 10.6519 90.345 23.7918 90.345Z" fill="#F9B906"/>
<path d="M47.5827 66.5541C47.5827 79.6923 36.9318 90.3451 23.7917 90.3451C16.848 90.3451 10.6002 87.3715 6.25244 82.6264C10.4835 86.4956 17.0828 89.0382 23.2693 89.0382C36.4094 89.0382 46.3946 78.9216 46.3946 65.7815C46.3946 59.5871 43.7253 53.224 39.8422 48.991C44.5992 53.3429 47.5827 59.6005 47.5827 66.5541Z" fill="#E8A615"/>
<path d="M23.792 88.2294C35.7633 88.2294 45.468 78.5247 45.468 66.5534C45.468 54.582 35.7633 44.8773 23.792 44.8773C11.8207 44.8773 2.11597 54.582 2.11597 66.5534C2.11597 78.5247 11.8207 88.2294 23.792 88.2294Z" fill="#E8A615"/>
<path d="M44.1411 66.5528C44.1411 77.7741 35.013 86.9036 23.7919 86.9036C20.6095 86.9036 17.5957 86.1698 14.9116 84.862C12.1103 83.4979 9.66778 81.5109 7.76439 79.0804C6.89543 77.9714 6.13898 76.7699 5.51163 75.4925C4.18694 72.7931 3.44116 69.758 3.44116 66.5528C3.44116 64.1755 3.85122 61.8939 4.60333 59.7718C6.86815 53.3797 12.2426 48.4473 18.8977 46.7992C20.4654 46.4103 22.106 46.2036 23.7921 46.2036C27.5457 46.2036 31.0639 47.2244 34.0851 49.0033C35.4326 49.7977 36.6811 50.741 37.8083 51.8136C39.9335 53.8354 41.6226 56.31 42.7193 59.0824C43.6367 61.3956 44.1411 63.9157 44.1411 66.5528Z" fill="#F9B906"/>
<path d="M34.0849 49.0031L5.51163 75.4925C4.18694 72.7931 3.44116 69.758 3.44116 66.5528C3.44116 64.1755 3.85122 61.8939 4.60333 59.7718L18.8977 46.7992C20.4654 46.4103 22.106 46.2036 23.7921 46.2036C27.5455 46.2034 31.0637 47.2243 34.0849 49.0031Z" fill="#FFC943"/>
<path d="M42.7196 59.0821L14.9118 84.862C12.1106 83.498 9.66805 81.511 7.76465 79.0805L37.8085 51.8135C39.9336 53.8353 41.6229 56.3099 42.7196 59.0821Z" fill="#FFC943"/>
<path d="M23.3733 40.9807C23.6047 40.9807 23.7924 40.7461 23.7924 40.4567C23.7924 40.1673 23.6047 39.9328 23.3733 39.9328C23.1418 39.9328 22.9541 40.1673 22.9541 40.4567C22.9541 40.7461 23.1418 40.9807 23.3733 40.9807Z" fill="#F8BA06"/>
<path d="M23.7922 93.9999C35.4846 93.9999 44.9632 93.5336 44.9632 92.9584C44.9632 92.3831 35.4846 91.9168 23.7922 91.9168C12.0997 91.9168 2.62109 92.3831 2.62109 92.9584C2.62109 93.5336 12.0997 93.9999 23.7922 93.9999Z" fill="#D8DFEA"/>
</svg>
