<svg width="20" height="19" viewBox="0 0 20 19" fill="none" xmlns="http://www.w3.org/2000/svg">
<path d="M8.78414 0.698302C9.07875 -0.232802 10.3963 -0.2328 10.691 0.698304L12.27 5.68886C12.4024 6.10733 12.7923 6.39054 13.2312 6.38716L18.4654 6.34678C19.442 6.33925 19.8492 7.59236 19.0547 8.16028L14.7963 11.2042C14.4393 11.4595 14.2904 11.9177 14.4292 12.3341L16.0851 17.2997C16.394 18.2262 15.3281 19.0006 14.5424 18.4205L10.3316 15.3112C9.97846 15.0505 9.49663 15.0505 9.14354 15.3112L4.93266 18.4205C4.14703 19.0006 3.08107 18.2262 3.39001 17.2997L5.04589 12.3341C5.18473 11.9177 5.03584 11.4595 4.67877 11.2042L0.420429 8.16028C-0.374063 7.59236 0.0330985 6.33925 1.00967 6.34678L6.24393 6.38716C6.68284 6.39054 7.07265 6.10733 7.20506 5.68886L8.78414 0.698302Z" fill="#2978A0"/>
</svg>
