<svg width="100" height="100" viewBox="0 0 100 100" fill="none" xmlns="http://www.w3.org/2000/svg">
<path d="M20 45H27.5V35H20V45ZM32.5 55H40V25H32.5V55ZM46.25 65H53.75V15H46.25V65ZM60 55H67.5V25H60V55ZM72.5 45H80V35H72.5V45ZM0 100V10C0 7.25 0.979167 4.89583 2.9375 2.9375C4.89583 0.979167 7.25 0 10 0H90C92.75 0 95.1042 0.979167 97.0625 2.9375C99.0208 4.89583 100 7.25 100 10V70C100 72.75 99.0208 75.1042 97.0625 77.0625C95.1042 79.0208 92.75 80 90 80H20L0 100ZM15.75 70H90V10H10V75.625L15.75 70Z" fill="#2978A0"/>
</svg>
